<svg width="90" height="90" viewBox="0 0 90 90" fill="none" xmlns="http://www.w3.org/2000/svg">
<path d="M45 61.875C49.4741 61.8703 53.7636 60.091 56.9273 56.9273C60.091 53.7636 61.8703 49.4741 61.875 45V22.5C61.875 18.0245 60.0971 13.7322 56.9324 10.5676C53.7678 7.4029 49.4755 5.625 45 5.625C40.5245 5.625 36.2323 7.4029 33.0676 10.5676C29.9029 13.7322 28.125 18.0245 28.125 22.5V45C28.1297 49.4741 29.909 53.7636 33.0727 56.9273C36.2364 60.091 40.5259 61.8703 45 61.875ZM33.75 22.5C33.75 19.5163 34.9353 16.6548 37.045 14.545C39.1548 12.4353 42.0163 11.25 45 11.25C47.9837 11.25 50.8452 12.4353 52.9549 14.545C55.0647 16.6548 56.25 19.5163 56.25 22.5V45C56.25 47.9837 55.0647 50.8452 52.9549 52.9549C50.8452 55.0647 47.9837 56.25 45 56.25C42.0163 56.25 39.1548 55.0647 37.045 52.9549C34.9353 50.8452 33.75 47.9837 33.75 45V22.5ZM47.8125 72.9844V81.5625C47.8125 82.3084 47.5162 83.0238 46.9887 83.5512C46.4613 84.0787 45.7459 84.375 45 84.375C44.2541 84.375 43.5387 84.0787 43.0113 83.5512C42.4838 83.0238 42.1875 82.3084 42.1875 81.5625V72.9844C35.2534 72.2788 28.8273 69.0271 24.1518 63.858C19.4763 58.689 16.8836 51.9699 16.875 45C16.875 44.2541 17.1713 43.5387 17.6988 43.0113C18.2262 42.4838 18.9416 42.1875 19.6875 42.1875C20.4334 42.1875 21.1488 42.4838 21.6762 43.0113C22.2037 43.5387 22.5 44.2541 22.5 45C22.5 50.9674 24.8705 56.6903 29.0901 60.9099C33.3097 65.1295 39.0326 67.5 45 67.5C50.9674 67.5 56.6903 65.1295 60.9099 60.9099C65.1295 56.6903 67.5 50.9674 67.5 45C67.5 44.2541 67.7963 43.5387 68.3238 43.0113C68.8512 42.4838 69.5666 42.1875 70.3125 42.1875C71.0584 42.1875 71.7738 42.4838 72.3012 43.0113C72.8287 43.5387 73.125 44.2541 73.125 45C73.1164 51.9699 70.5237 58.689 65.8482 63.858C61.1727 69.0271 54.7466 72.2788 47.8125 72.9844Z" fill="white"/>
</svg>
