<svg width="30" height="30" viewBox="0 0 30 30" fill="none" xmlns="http://www.w3.org/2000/svg">
<path d="M15.6592 5.40006C14.1832 4.84806 11.0511 6.59995 8.45912 8.89195H6.53908C5.26603 8.89195 4.04513 9.39774 3.14496 10.2979C2.24478 11.1981 1.73907 12.4189 1.73907 13.692V16.092C1.73907 17.365 2.24478 18.586 3.14496 19.4862C4.04513 20.3863 5.26603 20.892 6.53908 20.892H8.45912C10.9911 23.22 14.1232 24.936 15.6592 24.396C18.1792 23.46 18.5991 18.396 18.5991 14.892C18.5991 11.388 18.1792 6.33606 15.6592 5.40006Z" stroke="#5E5E5E" stroke-width="2" stroke-linecap="round" stroke-linejoin="round"/>
<path d="M25.3922 8.06396C27.1911 9.86413 28.2018 12.305 28.2018 14.85C28.2018 17.395 27.1911 19.8359 25.3922 21.636" stroke="#5E5E5E" stroke-width="2" stroke-linecap="round" stroke-linejoin="round"/>
<path d="M22.8469 19.14C23.9717 18.0148 24.6036 16.4888 24.6036 14.8979C24.6036 13.3069 23.9717 11.7812 22.8469 10.656" stroke="#5E5E5E" stroke-width="2" stroke-linecap="round" stroke-linejoin="round"/>
</svg>
